<svg width="324" height="126" viewBox="0 0 324 126" fill="none" xmlns="http://www.w3.org/2000/svg">
<g clip-path="url(#clip0_981_2291)">
<path d="M138.812 81.5534C136.773 82.599 134.46 80.7665 134.872 78.4271L139.255 53.4482L120.651 35.7254C118.913 34.0672 119.816 31.0359 122.145 30.7085L148.011 27.033L159.545 4.18237C160.585 2.1228 163.4 2.1228 164.44 4.18237L175.974 27.033L201.84 30.7085C204.169 31.0359 205.072 34.0672 203.329 35.7254L184.73 53.4482L189.113 78.4271C189.525 80.7665 187.212 82.599 185.173 81.5534L161.985 69.6396L138.806 81.5534H138.812Z" fill="#FFBCA2"/>
</g>
<g clip-path="url(#clip1_981_2291)">
<path d="M209.229 100.369C207.374 101.159 205.457 99.405 205.965 97.3763L211.38 75.7144L196.151 58.9846C194.729 57.4196 195.712 54.8141 197.778 54.6724L220.724 53.0649L232.284 33.72C233.327 31.9764 235.799 32.1527 236.583 34.0266L245.281 54.8166L267.766 59.6649C269.791 60.0983 270.394 62.8169 268.759 64.164L251.315 78.5631L253.6 100.774C253.815 102.854 251.669 104.319 249.944 103.273L230.326 91.3575L209.225 100.368L209.229 100.369Z" fill="#FFBCA2"/>
</g>
<g clip-path="url(#clip2_981_2291)">
<path d="M266.788 115.254C265.214 115.743 263.802 114.158 264.383 112.552L270.578 95.3938L259.587 80.5342C258.561 79.1443 259.576 77.108 261.267 77.1641L280.05 77.7588L291.049 62.9934C292.041 61.6627 294.035 62.0108 294.518 63.5989L299.864 81.2174L317.738 87.0212C319.348 87.5412 319.613 89.8009 318.173 90.7603L302.801 101.018L302.818 119.26C302.82 120.969 300.955 121.982 299.639 120.989L284.682 109.678L266.784 115.254L266.788 115.254Z" fill="#FFBCA2"/>
</g>
<g clip-path="url(#clip3_981_2291)">
<path d="M114.341 100.369C116.197 101.159 118.113 99.405 117.605 97.3763L112.191 75.7144L127.419 58.9846C128.841 57.4196 127.858 54.8141 125.793 54.6724L102.847 53.0649L91.2863 33.72C90.2437 31.9764 87.7718 32.1527 86.9871 34.0266L78.2898 54.8166L55.8044 59.6649C53.7797 60.0983 53.1765 62.8169 54.8108 64.164L72.2552 78.5631L69.9707 100.774C69.7555 102.854 71.9016 104.319 73.6263 103.273L93.2442 91.3575L114.346 100.368L114.341 100.369Z" fill="#FFBCA2"/>
</g>
<g clip-path="url(#clip4_981_2291)">
<path d="M56.7816 115.254C58.3554 115.743 59.7677 114.158 59.1865 112.552L52.9911 95.3938L63.9824 80.5342C65.0084 79.1443 63.9936 77.108 62.3028 77.1641L43.5195 77.7588L32.5205 62.9934C31.5286 61.6627 29.534 62.0108 29.0516 63.5989L23.7052 81.2174L5.83107 87.0212C4.22131 87.5412 3.95633 89.8009 5.39632 90.7603L20.768 101.018L20.7516 119.26C20.7491 120.969 22.6147 121.982 23.9299 120.989L38.8878 109.678L56.7853 115.254L56.7816 115.254Z" fill="#FFBCA2"/>
</g>
<defs>
<clipPath id="clip0_981_2291">
<rect width="84.495" height="84.495" fill="white" transform="translate(119.734)"/>
</clipPath>
<clipPath id="clip1_981_2291">
<rect width="74.3923" height="74.3923" fill="white" transform="translate(197.584 27.5527) rotate(4.08015)"/>
</clipPath>
<clipPath id="clip2_981_2291">
<rect width="60.7786" height="60.7786" fill="white" transform="translate(263.356 55.1055) rotate(9.90116)"/>
</clipPath>
<clipPath id="clip3_981_2291">
<rect width="74.3923" height="74.3923" fill="white" transform="matrix(-0.997465 0.0711519 0.0711519 0.997465 125.986 27.5527)"/>
</clipPath>
<clipPath id="clip4_981_2291">
<rect width="60.7786" height="60.7786" fill="white" transform="matrix(-0.985106 0.171949 0.171949 0.985106 60.2129 55.1055)"/>
</clipPath>
</defs>
</svg>
